<?xml version="1.0" ?><svg style="enable-background:new 0 0 48 48;" version="1.1" viewBox="0 0 48 48" xml:space="preserve" xmlns="http://www.w3.org/2000/svg" xmlns:xlink="http://www.w3.org/1999/xlink"><style type="text/css">
	.st0{display:none;}
	.st1{display:inline;}
	.st2{fill:none;stroke:#314044;stroke-width:2;stroke-miterlimit:10;}
</style><g class="st0" id="Layer_1"/><g id="Layer_2"><g><g><path class="st2" d="M28,4V2c0-0.6-0.4-1-1-1h-6c-0.6,0-1,0.4-1,1v2h-4v6h16V4H28z"/><path class="st2" d="M32,6h8c0.6,0,1,0.4,1,1v39c0,0.6-0.4,1-1,1H8c-0.6,0-1-0.4-1-1V7c0-0.6,0.4-1,1-1h8"/><polyline class="st2" points="13,9 10,9 10,44 38,44 38,9 35,9    "/><line class="st2" x1="23" x2="25" y1="4" y2="4"/><path class="st2" d="M19.8,27.8c0.4,0.4,1,0.4,1.4,0l9.9-9.9c0.4-0.4,1-0.4,1.4,0l0.7,0.7c0.4,0.4,0.4,1,0,1.4l-12,12     c-0.4,0.4-1,0.4-1.4,0l-4.9-4.9c-0.4-0.4-0.4-1,0-1.4l0.7-0.7c0.4-0.4,1-0.4,1.4,0L19.8,27.8z"/></g></g></g></svg>