<?xml version="1.0" ?><svg enable-background="new 0 0 32 32" version="1.1" viewBox="0 0 32 32" xml:space="preserve" xmlns="http://www.w3.org/2000/svg" xmlns:xlink="http://www.w3.org/1999/xlink"><g id="blue"><polygon fill="#3B97D3" points="23.51,11.29 18.82,6.88 20.6,5.01 23.3,7.55 29.72,0 31.7,1.66  "/><path d="M11.6,6.63H5.9V0h5.7V6.63z M6.9,5.63h3.7V1H6.9V5.63z" fill="#414753"/><path d="M14.8,32H2.7V5.63H14.8V32z M3.7,31H13.8V6.63H3.7V31z" fill="#414753"/><rect fill="#414753" height="1" width="6" x="5.75" y="9.98"/><rect fill="#414753" height="1" width="6" x="5.75" y="13.31"/><rect fill="#414753" height="1" width="6" x="5.75" y="16.65"/><rect fill="#414753" height="1" width="6" x="5.75" y="19.98"/><rect fill="#414753" height="1" width="6" x="5.75" y="23.31"/><rect fill="#414753" height="1" width="6" x="5.75" y="26.65"/><path d="M29.3,32H17.2V15.94H29.3V32z M18.2,31H28.3V16.94H18.2V31z" fill="#414753"/><rect fill="#414753" height="1" width="6" x="20.25" y="19.98"/><rect fill="#414753" height="1" width="6" x="20.25" y="23.31"/><rect fill="#414753" height="1" width="6" x="20.25" y="26.65"/><rect fill="#3B97D3" height="1" width="32" y="31"/></g></svg>