<?xml version="1.0" ?><svg id="Layer_1" style="enable-background:new 0 0 100 100;" version="1.1" viewBox="0 0 100 100" xml:space="preserve" xmlns="http://www.w3.org/2000/svg" xmlns:xlink="http://www.w3.org/1999/xlink"><g><path d="M32.9,39c1.6,7.1,7.9,11.9,14.8,11.9c1.1,0,2.2-0.1,3.4-0.4c4-0.9,7.3-3.3,9.5-6.7c2.2-3.4,2.9-7.5,2-11.5   c-1.9-8.2-10-13.3-18.2-11.5C36.2,22.6,31.1,30.8,32.9,39z M45.3,24.9c0.8-0.2,1.6-0.3,2.4-0.3c2,0,4.1,0.6,5.8,1.7   c2.5,1.6,4.2,4,4.8,6.8c0.6,2.9,0.1,5.8-1.4,8.3c-1.6,2.5-4,4.2-6.8,4.8c-5.9,1.3-11.8-2.4-13.1-8.3C35.8,32.1,39.5,26.3,45.3,24.9   z"/><path d="M21.7,67v10.5c0,1.2,1,2.1,2.1,2.1s2.1-1,2.1-2.1V67c0-4.9,4-8.8,8.8-8.8h24.4c1.2,0,2.1-1,2.1-2.1s-1-2.1-2.1-2.1H34.8   C27.5,53.9,21.7,59.7,21.7,67z"/><path d="M48.1,66c-0.8-0.8-2.2-0.8-3,0c-0.8,0.8-0.8,2.2,0,3l9.7,9.7c0.4,0.4,1,0.6,1.5,0.6c0.5,0,1.1-0.2,1.5-0.6l19.9-19.9   c0.8-0.8,0.8-2.2,0-3c-0.8-0.8-2.2-0.8-3,0L56.3,74.2L48.1,66z"/></g></svg>