<?xml version="1.0" ?><svg style="enable-background:new 0 0 48 48;" version="1.1" viewBox="0 0 48 48" xml:space="preserve" xmlns="http://www.w3.org/2000/svg" xmlns:xlink="http://www.w3.org/1999/xlink"><style type="text/css">
	.st0{display:none;}
	.st1{display:inline;}
	.st2{fill:none;stroke:#314044;stroke-width:2;stroke-miterlimit:10;}
</style><g class="st0" id="Layer_1"/><g id="Layer_2"><g><g><path class="st2" d="M44,20.9l1.4-1.4c0.8-0.8,0.8-2,0-2.8L44,15.3l-2.8,2.8L44,20.9z"/><path class="st2" d="M29.9,35L44,20.9l-2.8-2.8L27.1,32.2c-1.9,1.9-3.3,4.2-4.1,6.7l-0.1,0.4l0.4-0.1C25.7,38.3,28,36.9,29.9,35z     "/><polyline class="st2" points="34,25.3 34,1 2,1 2,7 2,47 34,47 34,30.9    "/><line class="st2" x1="14" x2="9" y1="40" y2="40"/><line class="st2" x1="8" x2="6" y1="40" y2="40"/><line class="st2" x1="28" x2="6" y1="22" y2="22"/><line class="st2" x1="24" x2="6" y1="26" y2="26"/><line class="st2" x1="20" x2="6" y1="30" y2="30"/><line class="st2" x1="14" x2="6" y1="6" y2="6"/><line class="st2" x1="14" x2="6" y1="10" y2="10"/></g></g></g></svg>