<?xml version="1.0" ?><!DOCTYPE svg  PUBLIC '-//W3C//DTD SVG 1.1//EN'  'http://www.w3.org/Graphics/SVG/1.1/DTD/svg11.dtd'><svg height="64px" id="_x33_5_x5F_modeling_x5F_api" style="enable-background:new 0 0 64 64;" version="1.1" viewBox="0 0 64 64" width="64px" xml:space="preserve" xmlns="http://www.w3.org/2000/svg" xmlns:xlink="http://www.w3.org/1999/xlink"><g><line style="fill:none;stroke:#222829;stroke-width:2;stroke-linejoin:round;stroke-miterlimit:10;" x1="47" x2="63" y1="59" y2="59"/><polyline points="   59,63 63,59 59,55  " style="fill:none;stroke:#222829;stroke-width:2;stroke-linecap:round;stroke-linejoin:round;stroke-miterlimit:10;"/><polyline points="   36,9 32,5 36,1  " style="fill:none;stroke:#222829;stroke-width:2;stroke-linecap:round;stroke-linejoin:round;stroke-miterlimit:10;"/><path d="M32,5c14.912,0,27,12.088,27,27S46.912,59,32,59H0   " style="fill:none;stroke:#222829;stroke-width:2;stroke-miterlimit:10;"/><g><polygon points="19,38 16,32 19,26     26,26 29,32 26,38   " style="fill:none;stroke:#222829;stroke-width:2;stroke-linecap:round;stroke-miterlimit:10;"/><polygon points="33,46 30,40 33,34     40,34 43,40 40,46   " style="fill:none;stroke:#222829;stroke-width:2;stroke-linecap:round;stroke-miterlimit:10;"/><polygon points="33,30 30,24 33,18     40,18 43,24 40,30   " style="fill:none;stroke:#222829;stroke-width:2;stroke-linecap:round;stroke-miterlimit:10;"/><circle cx="45" cy="32" r="1" style="fill:none;stroke:#222829;stroke-width:2;stroke-linecap:round;stroke-miterlimit:10;"/><circle cx="25" cy="43" r="1" style="fill:none;stroke:#222829;stroke-width:2;stroke-linecap:round;stroke-miterlimit:10;"/><circle cx="25" cy="21" r="1" style="fill:none;stroke:#222829;stroke-width:2;stroke-linecap:round;stroke-miterlimit:10;"/></g><path d="M18.004,55.095   C10.208,50.359,5,41.787,5,32C5,18.771,14.515,7.764,27.074,5.448" style="fill:none;stroke:#222829;stroke-width:2;stroke-linejoin:round;stroke-miterlimit:10;"/></g></svg>