<?xml version="1.0" encoding="utf-8"?>
<!-- Generator: Adobe Illustrator 19.2.1, SVG Export Plug-In . SVG Version: 6.00 Build 0)  -->
<svg version="1.1" xmlns="http://www.w3.org/2000/svg" xmlns:xlink="http://www.w3.org/1999/xlink" x="0px" y="0px"
	 viewBox="0 0 182 184" style="enable-background:new 0 0 182 184;" xml:space="preserve">
<style type="text/css">
	.st0{display:none;}
	.st1{display:inline;stroke:#FFFFFF;stroke-miterlimit:10;}
	.st2{fill:none;stroke:#000000;stroke-width:3;stroke-linecap:round;stroke-linejoin:round;}
</style>
<g id="Capa_2" class="st0">
	<rect x="-119" y="-87" class="st1" width="462" height="401"/>
</g>
<g id="Capa_1">
	<g id="图层_x0020_1">
		<g id="_142111104">
			<g>
				<path id="_142109328" class="st2" d="M50.5,8.8c23.6,0,42.7,19.1,42.7,42.7S74,94.1,50.5,94.1S7.8,75,7.8,51.4
					S26.9,8.8,50.5,8.8z"/>
			</g>
			<polygon points="67,49.3 56.6,49.3 54.1,54.6 54.1,54.9 67,54.9 67,61.1 54.1,61.1 54.1,77.4 46.8,77.4 46.8,61.1 33.9,61.1 
				33.9,54.9 46.8,54.9 46.8,54.6 44.3,49.3 33.9,49.3 33.9,43.1 41.5,43.1 33.3,25.5 40.4,25.5 50.5,48.5 60.6,25.5 67.6,25.5 
				59.4,43.1 67,43.1 			"/>
			<g>
				<path class="st2" d="M132.3,90.6c23.6,0,42.7,19.1,42.7,42.7S155.8,176,132.3,176s-42.7-19.1-42.7-42.7S108.7,90.6,132.3,90.6z"
					/>
			</g>
			<path d="M149.4,158.6c-3.3,1.8-6.9,2.8-11,2.8c-11.1,0-17.7-6.3-19.9-18.8h-5.9l1.3-6h3.9l-0.1-1.2c0-0.9,0-2.6,0.2-5.2h-5.4
				l1.3-5.9h4.9c1.3-6,3.8-10.6,7.5-14s8.2-5,13.5-5c3.7,0,6.9,0.7,9.6,2.1v7.4c-2.8-2.1-6.1-3.1-9.7-3.1c-3,0-5.6,1.1-8,3.4
				s-4,5.3-5,9.2h17.9l-1.3,5.9h-17.5c-0.2,2.3-0.2,4.5,0,6.4h18.9l-1.3,6h-16.7c1.9,8.2,6.1,12.4,12.6,12.4c3.4,0,6.8-1.1,10.3-3.3
				L149.4,158.6L149.4,158.6z"/>
			<g>
				<path d="M129,40.8c17.1,1.2,30.1,11.3,35.9,36.3c0.4,1.6,0.9,4.2,2.7,12c0,0,2.5-4.7,3.7-12.9c4.8-33.2-16.1-50-37.4-57.5
					L130.7,33L129,40.8z"/>
				<polygon points="99.6,22.9 119.7,14 139.7,5.2 134.1,30.5 128.5,55.8 114.1,39.3 				"/>
			</g>
			<g>
				<path d="M55,143c-17.1-1.2-30.1-11.3-35.9-36.3c-0.4-1.6-0.9-4.2-2.7-12c0,0-2.5,4.7-3.7,12.9c-4.8,33.2,16.1,50,37.4,57.5
					l3.2-14.4C53.2,150.8,55,143,55,143z"/>
				<polygon points="84.3,161 64.3,169.8 44.2,178.7 49.8,153.3 55.4,128 69.9,144.5 				"/>
			</g>
		</g>
	</g>
</g>
</svg>
