<?xml version="1.0" encoding="utf-8"?>
<!-- Generator: Adobe Illustrator 19.2.1, SVG Export Plug-In . SVG Version: 6.00 Build 0)  -->
<svg version="1.1" id="Capa_1" xmlns="http://www.w3.org/2000/svg" xmlns:xlink="http://www.w3.org/1999/xlink" x="0px" y="0px"
	 viewBox="0 0 217 200" style="enable-background:new 0 0 217 200;" xml:space="preserve">
<style type="text/css">
	.st0{fill:none;stroke:#FFFFFF;stroke-width:3;stroke-linecap:round;stroke-linejoin:round;}
	.st1{fill:#FFFFFF;}
</style>
<g id="图层_x0020_1">
	<g id="_142111104">
		<g>
			<path id="_142109328" class="st0" d="M69.5,16.8c23.6,0,42.7,19.1,42.7,42.7S93,102.1,69.5,102.1S26.8,83,26.8,59.4
				S45.9,16.8,69.5,16.8z"/>
		</g>
		<polygon class="st1" points="86,57.3 75.6,57.3 73.1,62.6 73.1,62.9 86,62.9 86,69.1 73.1,69.1 73.1,85.4 65.8,85.4 65.8,69.1 
			52.9,69.1 52.9,62.9 65.8,62.9 65.8,62.6 63.3,57.3 52.9,57.3 52.9,51.1 60.5,51.1 52.3,33.5 59.4,33.5 69.5,56.5 79.6,33.5 
			86.6,33.5 78.4,51.1 86,51.1 		"/>
		<g>
			<path class="st0" d="M151.3,98.6c23.6,0,42.7,19.1,42.7,42.7S174.8,184,151.3,184s-42.7-19.1-42.7-42.7S127.7,98.6,151.3,98.6z"
				/>
		</g>
		<path class="st1" d="M168.4,166.6c-3.3,1.8-6.9,2.8-11,2.8c-11.1,0-17.7-6.3-19.9-18.8h-5.9l1.3-6h3.9l-0.1-1.2
			c0-0.9,0-2.6,0.2-5.2h-5.4l1.3-5.9h4.9c1.3-6,3.8-10.6,7.5-14c3.7-3.4,8.2-5,13.5-5c3.7,0,6.9,0.7,9.6,2.1v7.4
			c-2.8-2.1-6.1-3.1-9.7-3.1c-3,0-5.6,1.1-8,3.4c-2.4,2.3-4,5.3-5,9.2h17.9l-1.3,5.9h-17.5c-0.2,2.3-0.2,4.5,0,6.4h18.9l-1.3,6
			h-16.7c1.9,8.2,6.1,12.4,12.6,12.4c3.4,0,6.8-1.1,10.3-3.3L168.4,166.6L168.4,166.6z"/>
		<g>
			<path class="st1" d="M148,48.8c17.1,1.2,30.1,11.3,35.9,36.3c0.4,1.6,0.9,4.2,2.7,12c0,0,2.5-4.7,3.7-12.9
				c4.8-33.2-16.1-50-37.4-57.5L149.7,41C149.7,41,148,48.8,148,48.8z"/>
			<polygon class="st1" points="118.6,30.9 138.7,22 158.7,13.2 153.1,38.5 147.5,63.8 133.1,47.3 			"/>
		</g>
		<g>
			<path class="st1" d="M74,151c-17.1-1.2-30.1-11.3-35.9-36.3c-0.4-1.6-0.9-4.2-2.7-12c0,0-2.5,4.7-3.7,12.9
				c-4.8,33.2,16.1,50,37.4,57.5l3.2-14.4C72.2,158.8,74,151,74,151z"/>
			<polygon class="st1" points="103.3,169 83.3,177.8 63.2,186.7 68.8,161.3 74.4,136 88.9,152.5 			"/>
		</g>
	</g>
</g>
</svg>
