<?xml version="1.0" ?><!DOCTYPE svg  PUBLIC '-//W3C//DTD SVG 1.1//EN'  'http://www.w3.org/Graphics/SVG/1.1/DTD/svg11.dtd'><svg enable-background="new 0 0 800 800" height="800px" id="Layer_1" version="1.1" viewBox="0 0 800 800" width="800px" xml:space="preserve" xmlns="http://www.w3.org/2000/svg" xmlns:cc="http://creativecommons.org/ns#" xmlns:dc="http://purl.org/dc/elements/1.1/" xmlns:inkscape="http://www.inkscape.org/namespaces/inkscape" xmlns:rdf="http://www.w3.org/1999/02/22-rdf-syntax-ns#" xmlns:sodipodi="http://sodipodi.sourceforge.net/DTD/sodipodi-0.dtd" xmlns:svg="http://www.w3.org/2000/svg" xmlns:xlink="http://www.w3.org/1999/xlink"><g><path d="M106.23,577.734L392.962,743.27c2.179,1.266,4.604,1.891,7.038,1.891s4.86-0.625,7.038-1.891   l286.732-165.535c4.351-2.516,7.038-7.162,7.038-12.193V234.456c0-5.024-2.688-9.677-7.038-12.186L407.038,56.727   c-4.357-2.515-9.719-2.515-14.076,0L106.23,222.263c-4.351,2.516-7.039,7.162-7.039,12.193v331.085   C99.191,570.572,101.879,575.219,106.23,577.734z M127.344,242.58L400,85.168l272.655,157.418v314.83L400,714.829L127.344,557.417   V242.58z" fill="#1D1D1B"/><path d="M487.964,242.223c6.874,3.629,15.39,1.018,19.032-5.856c3.636-6.873,1.018-15.382-5.849-19.025   c-80.631-42.684-178.176-27.988-242.744,36.565c-56.422,56.416-74.747,138.173-49.907,211.725l-11.595-4.866   c-7.169-2.997-15.417,0.37-18.427,7.54c-3.004,7.169,0.371,15.416,7.54,18.427l43.233,18.118c1.78,0.749,3.622,1.099,5.437,1.099   c5.499,0,10.729-3.244,12.991-8.633l18.118-43.225c3.011-7.169-0.364-15.417-7.533-18.428c-7.169-2.996-15.424,0.371-18.421,7.54   l-5.079,12.104c-20.764-63.165-4.832-133.107,43.549-181.496C334.085,218.042,418.339,205.341,487.964,242.223z" fill="#1D1D1B"/><path d="M591.503,334.366l11.603,4.866c7.176,3.01,15.423-0.371,18.421-7.54c3.01-7.168-0.364-15.417-7.533-18.427   l-43.233-18.118c-7.176-2.997-15.41,0.364-18.421,7.533l-18.132,43.219c-3.003,7.169,0.372,15.417,7.54,18.421   c1.78,0.749,3.623,1.1,5.438,1.1c5.499,0,10.722-3.244,12.99-8.633l5.065-12.083c20.764,63.151,4.832,133.094-43.549,181.475   c-55.776,55.77-140.029,68.464-209.656,31.596c-6.873-3.628-15.396-1.018-19.031,5.856c-3.636,6.865-1.018,15.382,5.849,19.024   c30.765,16.29,63.976,24.222,96.899,24.222c53.35,0,105.917-20.86,145.843-60.794C598.019,489.66,616.343,407.91,591.503,334.366z" fill="#1D1D1B"/></g></svg>