<?xml version="1.0" encoding="utf-8"?>
<!-- Generator: Adobe Illustrator 19.2.1, SVG Export Plug-In . SVG Version: 6.00 Build 0)  -->
<svg version="1.1"
	 id="Layer_1" xmlns:cc="http://creativecommons.org/ns#" xmlns:dc="http://purl.org/dc/elements/1.1/" xmlns:inkscape="http://www.inkscape.org/namespaces/inkscape" xmlns:rdf="http://www.w3.org/1999/02/22-rdf-syntax-ns#" xmlns:sodipodi="http://sodipodi.sourceforge.net/DTD/sodipodi-0.dtd" xmlns:svg="http://www.w3.org/2000/svg"
	 xmlns="http://www.w3.org/2000/svg" xmlns:xlink="http://www.w3.org/1999/xlink" x="0px" y="0px" viewBox="0 0 800 800"
	 style="enable-background:new 0 0 800 800;" xml:space="preserve">
<style type="text/css">
	.st0{fill:#FFFFFF;}
</style>
<g>
	<path class="st0" d="M106.2,577.7L393,743.3c2.2,1.3,4.6,1.9,7,1.9s4.9-0.6,7-1.9l286.7-165.5c4.4-2.5,7-7.2,7-12.2V234.5
		c0-5-2.7-9.7-7-12.2L407,56.7c-4.4-2.5-9.7-2.5-14.1,0L106.2,222.3c-4.4,2.5-7,7.2-7,12.2v331.1
		C99.2,570.6,101.9,575.2,106.2,577.7z M127.3,242.6L400,85.2l272.7,157.4v314.8L400,714.8L127.3,557.4V242.6z"/>
	<path class="st0" d="M488,242.2c6.9,3.6,15.4,1,19-5.9c3.6-6.9,1-15.4-5.8-19c-80.6-42.7-178.2-28-242.7,36.6
		c-56.4,56.4-74.7,138.2-49.9,211.7l-11.6-4.9c-7.2-3-15.4,0.4-18.4,7.5c-3,7.2,0.4,15.4,7.5,18.4l43.2,18.1
		c1.8,0.7,3.6,1.1,5.4,1.1c5.5,0,10.7-3.2,13-8.6l18.1-43.2c3-7.2-0.4-15.4-7.5-18.4c-7.2-3-15.4,0.4-18.4,7.5l-5.1,12.1
		c-20.8-63.2-4.8-133.1,43.5-181.5C334.1,218,418.3,205.3,488,242.2z"/>
	<path class="st0" d="M591.5,334.4l11.6,4.9c7.2,3,15.4-0.4,18.4-7.5c3-7.2-0.4-15.4-7.5-18.4l-43.2-18.1c-7.2-3-15.4,0.4-18.4,7.5
		l-18.1,43.2c-3,7.2,0.4,15.4,7.5,18.4c1.8,0.7,3.6,1.1,5.4,1.1c5.5,0,10.7-3.2,13-8.6l5.1-12.1c20.8,63.2,4.8,133.1-43.5,181.5
		c-55.8,55.8-140,68.5-209.7,31.6c-6.9-3.6-15.4-1-19,5.9c-3.6,6.9-1,15.4,5.8,19c30.8,16.3,64,24.2,96.9,24.2
		c53.4,0,105.9-20.9,145.8-60.8C598,489.7,616.3,407.9,591.5,334.4z"/>
</g>
</svg>
