<?xml version="1.0" encoding="utf-8"?>
<!-- Generator: Adobe Illustrator 19.2.1, SVG Export Plug-In . SVG Version: 6.00 Build 0)  -->
<svg version="1.1" id="Capa_1" xmlns="http://www.w3.org/2000/svg" xmlns:xlink="http://www.w3.org/1999/xlink" x="0px" y="0px"
	 viewBox="0 0 50 30.8" style="enable-background:new 0 0 50 30.8;" xml:space="preserve">
<style type="text/css">
	.st0{fill:#FFFFFF;}
</style>
<path class="st0" d="M23.2,15.6c-0.1,0-0.2,0-0.3-0.1l-5.8-3.4c-0.2-0.1-0.3-0.3-0.3-0.5V4.9c0-0.2,0.1-0.4,0.3-0.5L23,1.1
	c0.2-0.1,0.4-0.1,0.5,0l5.8,3.4c0.2,0.1,0.3,0.3,0.3,0.5v6.8c0,0.2-0.1,0.4-0.3,0.5l-5.8,3.4C23.4,15.6,23.3,15.6,23.2,15.6z
	 M28.5,5.9l-1.3,0.8c-0.1,0.1-0.2,0.1-0.3,0.1c-0.2,0-0.4-0.1-0.5-0.3c-0.2-0.3-0.1-0.6,0.2-0.7L28,4.9l-4.2-2.4l0,3.8
	c0,0.3-0.2,0.5-0.5,0.5c-0.3,0-0.5-0.2-0.5-0.5V2.5h0l-4.2,2.4l3.3,1.9c0.3,0.1,0.4,0.5,0.2,0.7c-0.1,0.2-0.3,0.3-0.5,0.3
	c-0.1,0-0.2,0-0.3-0.1L18,5.9v4.9l3.4-2c0.3-0.2,0.6-0.1,0.7,0.2c0.2,0.3,0.1,0.6-0.2,0.7l-3.4,2l4.2,2.4h0v-4
	c0-0.3,0.2-0.5,0.5-0.5c0.3,0,0.5,0.2,0.5,0.5v4h0l4.2-2.4l0,0l-3.4-1.9c-0.3-0.1-0.4-0.5-0.2-0.7c0.1-0.3,0.5-0.4,0.7-0.2l3.4,1.9
	L28.5,5.9L28.5,5.9z"/>
<path class="st0" d="M24.8,8c-0.2,0-0.4-0.1-0.5-0.3c-0.2-0.3-0.1-0.6,0.2-0.7l0.8-0.5c0.3-0.2,0.6-0.1,0.7,0.2
	c0.2,0.3,0.1,0.6-0.2,0.7l-0.8,0.5C25,7.9,24.9,8,24.8,8z"/>
<g>
	<g>
		<path class="st0" d="M6.9,22.1c0-1.2-0.3-1.7-2-1.7s-2,0.6-2,2.3v3.6c0,1.6,0.1,2.2,2,2.2c1.9,0,2-0.4,2-2v-1.4h-2V24h3.3v2.5
			c0,2-0.2,3.2-3.3,3.2c-2.8,0-3.3-1.2-3.3-3.4v-3.5c0-2.2,0.5-3.4,3.3-3.4c2.7,0,3.2,0.8,3.3,2.9H6.9z"/>
		<path class="st0" d="M14.9,19.4v1.1H11v3.1h3.5v1.2H11v3.7h4.2v1.2H9.8V19.4H14.9z"/>
		<path class="st0" d="M21,21.9c-0.1-0.8-0.4-1.4-1.6-1.4c-1.4,0-1.7,0.6-1.7,1.7c0,1.4,1.2,1.4,2.5,1.5c1.2,0.1,2.4,0.7,2.4,2.8
			c0,2.2-0.8,3.1-2.9,3.1h-0.3c-2.1,0-3-1-3.1-2.7h1.4c0.1,0.9,0.4,1.5,1.8,1.5h0.3c1.4,0,1.7-0.6,1.7-1.8c0-1.7-1.1-1.7-2.4-1.8
			c-1.2-0.1-2.5-0.7-2.5-2.6c0-1.9,0.9-2.9,3-2.9c2,0,2.8,0.9,2.9,2.6H21z"/>
		<path class="st0" d="M26.6,20.6v9h-1.3v-9h-2.1v-1.2h5.5v1.2H26.6z"/>
		<path class="st0" d="M34.9,19.4v1.1H31v3.1h3.5v1.2H31v3.7h4.2v1.2h-5.5V19.4H34.9z"/>
		<path class="st0" d="M36.6,29.6V19.4h1.3v9h4v1.2H36.6z"/>
		<path class="st0" d="M43.1,29.6V19.4h1.3v9h4v1.2H43.1z"/>
	</g>
</g>
</svg>
