<?xml version="1.0" encoding="utf-8"?>
<!-- Generator: Adobe Illustrator 19.2.1, SVG Export Plug-In . SVG Version: 6.00 Build 0)  -->
<svg version="1.1" id="Capa_2" xmlns="http://www.w3.org/2000/svg" xmlns:xlink="http://www.w3.org/1999/xlink" x="0px" y="0px"
	 viewBox="0 0 340.2 90.7" style="enable-background:new 0 0 340.2 90.7;" xml:space="preserve">
<style type="text/css">
	.st0{fill:#F2F2F2;}
</style>
<path class="st0" d="M53.3,87.7c-0.2,0-0.4,0-0.6,0c-10.9-0.2-21.2-4.6-28.8-12.4C16.3,67.4,12.2,57,12.3,46s4.6-21.2,12.4-28.9
	S42.9,5.4,53.9,5.5S75,10.1,82.7,17.9c7.6,7.9,11.7,18.2,11.6,29.2C93.9,69.6,75.6,87.7,53.3,87.7z M53.3,7.5
	c-10.2,0-19.9,3.9-27.2,11.1c-7.4,7.3-11.6,17-11.8,27.5s3.8,20.3,11.1,27.8s17,11.7,27.4,11.8c0.2,0,0.4,0,0.5,0
	c21.3,0,38.7-17.2,39-38.6c0.2-10.4-3.8-20.3-11.1-27.8C74,11.8,64.2,7.6,53.9,7.5C53.6,7.5,53.5,7.5,53.3,7.5z"/>
<path class="st0" d="M86,25.3c-5.7-8.7-14.2-14.8-24.2-17S41.4,8,32.5,13.5l-1-1.7C40.9,6,51.8,4.1,62.3,6.4
	C72.7,8.7,81.7,15,87.7,24.2L86,25.3z"/>
<path class="st0" d="M53.7,80.7c-0.2,0-0.3,0-0.5,0c-9.2-0.1-17.8-3.9-24.3-10.5c-6.4-6.7-9.9-15.5-9.7-24.7
	c0.3-19.1,16-34.5,35-34.2l0,0c19,0.3,34.3,16,34,35.1C88,65.4,72.6,80.7,53.7,80.7z M53.7,12.4c-18.1,0-33,14.7-33.3,33.1
	c-0.1,9,3.2,17.4,9.4,23.8s14.5,10,23.4,10.2c18.3,0.3,33.5-14.6,33.7-33.1C87.3,28,72.6,12.7,54.2,12.5
	C54.1,12.4,53.9,12.4,53.7,12.4z"/>
<path class="st0" d="M54.1,18.9c-15.6-0.3-28.3,12-28.5,27.3s12.2,27.9,27.8,28.1s28.3-12,28.5-27.3C82.1,31.7,69.6,19.1,54.1,18.9z
	 M79.3,47c-0.2,14.2-11.8,25.7-26,25.5c-14.3-0.3-25.6-12-25.4-26.3C28.1,32,39.8,20.6,54,20.8C68.2,21,79.5,32.7,79.3,47z"/>
<path class="st0" d="M53.8,23.7c-12.6-0.2-22.9,9.9-23,22.4C30.6,58.7,40.6,69,53.2,69.2s22.9-9.9,23-22.4
	C76.4,34.2,66.3,23.9,53.8,23.7z M75.4,46.7c-0.2,12-10.1,21.7-22.1,21.5c-12-0.2-21.7-10.1-21.5-22.1s10.1-21.7,22.1-21.5
	C65.9,24.7,75.5,34.6,75.4,46.7z"/>
<ellipse class="st0" cx="53.9" cy="45.9" rx="3" ry="2.8"/>
<path class="st0" d="M20.5,43l-1-0.1c0.8-9,5.1-17.5,12-23.4l0.6,0.7C25.5,26,21.3,34.2,20.5,43z"/>
<path class="st0" d="M32.2,73c-4.1-3.2-7.4-7.4-9.6-12.1c-2.3-4.9-3.4-10.3-3.2-15.7c0-0.6,0.1-1.6,0.2-2.3l1,0.1
	c-0.1,0.7-0.2,1.6-0.2,2.2c-0.2,5.3,0.9,10.6,3.1,15.3c2.1,4.6,5.4,8.6,9.3,11.8L32.2,73z"/>
<path class="st0" d="M37,84.3c-10.6-4-21-17.3-22.9-26l1.9-0.4c0.9,4.1,3.8,9.3,7.8,14c4.3,5.1,9.3,8.9,13.8,10.6L37,84.3z"/>
<path class="st0" d="M92.2,59.2l-1.8-0.8c0.3-0.6,0.3-0.9,0.5-1.5c3-10.8,1.2-22.3-4.9-31.5l1.7-1.1c6.4,9.6,8.3,21.7,5.1,33.1
	C92.6,58.1,92.5,58.5,92.2,59.2z"/>
<path class="st0" d="M69.7,66.7c-4.5,3.6-10,5.8-16.2,5.7c-2.8-0.1-5.6-0.4-8.1-1.3l-0.6,1.8c2.8,0.9,5.8,1.4,8.9,1.4
	c6.6,0.1,12.6-2.2,17.4-5.9L69.7,66.7z"/>
<path class="st0" d="M45.6,71.2c-5.5-1.6-10.2-5.3-13.6-10.4c-1.6-2.4-2.5-4.9-3.2-7.5l-2.4,0.6c0.8,2.8,2.1,5.8,3.9,8.3
	c3.7,5.4,8.9,9,14.7,10.8L45.6,71.2z"/>
<g>
	<path class="st0" d="M135.7,33.1c-0.1-6.1-1.8-9-10.6-9s-10.6,3.3-10.6,11.9v18.6c0,8.4,0.7,11.7,10.6,11.7s10.6-2,10.6-10.4v-7.2
		h-10.3v-5.9h17V56c0,10.3-1.2,16.6-17.2,16.6c-14.6,0-17.2-6.3-17.2-17.9V36.2c0-11.7,2.6-17.9,17.2-17.9c13.9,0,16.8,4.4,17,14.9
		H135.7z"/>
	<path class="st0" d="M175,59.6l-1-18.1V18.9h6.6v53.2h-6.1l-17.5-38.2l0.4,17.5v20.8h-6.6V18.9h6.2L175,59.6z"/>
	<path class="st0" d="M223.9,54.6c0,11.7-2.6,17.9-17.2,17.9c-14.6,0-17.2-6.3-17.2-17.9V36c0-11.7,2.6-17.9,17.2-17.9
		c14.6,0,17.2,6.3,17.2,17.9V54.6z M217.3,36c0-8.4-0.7-11.9-10.6-11.9c-9.9,0-10.6,3.4-10.6,11.9v18.7c0,8.4,0.7,11.7,10.6,11.7
		c9.9,0,10.6-3.3,10.6-11.7V36z"/>
	<path class="st0" d="M255.9,32c-0.3-4.3-1.9-7.5-8.5-7.5c-7.4,0-8.8,3.4-8.8,8.7c0,7.4,6.4,7.3,13.1,8c6.1,0.6,12.5,3.7,12.5,14.8
		c0,11.5-4.3,16.4-15.3,16.4h-1.3c-10.9,0-15.9-5.3-16.4-14.4h7.1c0.3,4.5,2.3,7.9,9.2,7.9h1.3c7.2,0,8.6-3.4,8.6-9.6
		c0-8.7-5.7-8.8-12.4-9.4c-6.2-0.5-13.3-3.5-13.3-13.7c0-9.9,4.5-15,15.7-15c10.6,0,14.8,4.9,15.3,13.7H255.9z"/>
	<path class="st0" d="M272.1,72.1V19h6.7v53.1H272.1z"/>
	<path class="st0" d="M311.4,32c-0.3-4.3-1.9-7.5-8.5-7.5c-7.4,0-8.8,3.4-8.8,8.7c0,7.4,6.4,7.3,13.1,8c6.1,0.6,12.5,3.7,12.5,14.8
		c0,11.5-4.3,16.4-15.3,16.4H303c-10.9,0-15.9-5.3-16.4-14.4h7.1c0.3,4.5,2.3,7.9,9.2,7.9h1.3c7.2,0,8.6-3.4,8.6-9.6
		c0-8.7-5.7-8.8-12.4-9.4c-6.2-0.5-13.3-3.5-13.3-13.7c0-9.9,4.5-15,15.7-15c10.6,0,14.8,4.9,15.3,13.7H311.4z"/>
</g>
</svg>
