<?xml version="1.0" encoding="utf-8"?>
<!-- Generator: Adobe Illustrator 19.2.1, SVG Export Plug-In . SVG Version: 6.00 Build 0)  -->
<svg version="1.1" id="Capa_1" xmlns="http://www.w3.org/2000/svg" xmlns:xlink="http://www.w3.org/1999/xlink" x="0px" y="0px"
	 viewBox="0 0 165.9 195.2" style="enable-background:new 0 0 165.9 195.2;" xml:space="preserve">
<style type="text/css">
	.st0{fill:#252A31;}
	.st1{fill:#767579;}
	.st2{fill:#B2B2B2;}
	.st3{fill:#4D868E;}
	.st4{fill:#227887;}
</style>
<path class="st0" d="M83.2,161.2c-0.4,0-0.7,0-1.1,0c-20.9-0.3-40.4-8.7-55-23.7C12.6,122.5,4.7,102.6,5,81.7s8.7-40.5,23.7-55.1
	C43.7,12,63.4,4.1,84.3,4.4c20.9,0.3,40.4,8.7,55,23.7c14.6,15,22.4,34.8,22.1,55.8C160.8,126.7,125.9,161.2,83.2,161.2z M83.2,8.1
	c-19.5,0-37.9,7.5-51.9,21.1C17.1,43.2,9.1,61.8,8.8,81.8s7.2,38.8,21.1,53.1c13.9,14.3,32.4,22.3,52.3,22.6c0.3,0,0.7,0,1,0
	c40.6,0,73.8-32.8,74.4-73.6c0.3-19.9-7.2-38.8-21.1-53.1C122.7,16.4,104.1,8.4,84.3,8.2C83.9,8.1,83.6,8.1,83.2,8.1z"/>
<path class="st1" d="M145.6,42.1c-10.8-16.7-27.2-28.2-46.2-32.4c-19-4.2-38.8-0.6-55.9,9.9l-2-3.2C59.5,5.4,80.3,1.7,100.3,6
	c20,4.4,37.2,16.5,48.6,34.1L145.6,42.1z"/>
<path class="st2" d="M84.1,147.9c-0.3,0-0.6,0-0.9,0c-17.6-0.2-34-7.4-46.3-20C24.7,115.1,18,98.4,18.3,80.7
	C18.8,44.2,48.7,14.9,85,15.4l0,0c36.3,0.5,65.4,30.6,64.9,67.1C149.4,118.7,120,147.9,84.1,147.9z M84.1,17.6
	c-34.6,0-63,28.1-63.5,63.1c-0.2,17.1,6.2,33.2,18,45.5c11.8,12.2,27.7,19.1,44.7,19.4c35,0.5,63.9-27.8,64.4-63.1
	C148.1,47.2,120,18.1,85,17.7C84.7,17.6,84.4,17.6,84.1,17.6z"/>
<path class="st0" d="M84.7,29.9C55,29.4,30.6,52.8,30.2,82c-0.4,29.2,23.3,53.3,53,53.7c29.7,0.4,54.1-22.9,54.5-52.2
	C138.2,54.3,114.4,30.3,84.7,29.9z M132.8,83.5c-0.4,27.2-22.6,49-49.7,48.6c-27.1-0.4-48.7-22.8-48.3-50
	c0.4-27.2,22.6-49,49.7-48.6S133.2,56.3,132.8,83.5z"/>
<path class="st3" d="M84.2,39.1c-24-0.3-43.7,18.9-44,42.8C39.8,105.9,59,125.7,83,126s43.7-18.9,44-42.8
	C127.3,59.2,108.1,39.4,84.2,39.1z M125.4,82.9c-0.3,23-19.2,41.4-42.2,41.1c-23-0.3-41.4-19.2-41.1-42.2
	c0.3-23,19.2-41.4,42.2-41.1C107.3,41,125.7,59.9,125.4,82.9z"/>
<ellipse class="st3" cx="84.4" cy="81.5" rx="5.8" ry="5.4"/>
<path class="st4" d="M20.7,75.9l-1.9-0.2c1.5-17.2,9.8-33.5,22.9-44.6l1.2,1.4C30.2,43.4,22.1,59.2,20.7,75.9z"/>
<path class="st1" d="M43,133.2c-7.8-6.1-14.1-14.1-18.4-23.1c-4.4-9.3-6.5-19.6-6.2-30c0-1.2,0.2-3,0.3-4.4l1.9,0.2
	c-0.1,1.3-0.3,3-0.3,4.2c-0.3,10.1,1.8,20.2,6,29.2c4.1,8.8,10.3,16.5,17.8,22.5L43,133.2z"/>
<path class="st4" d="M52.1,154.8c-20.2-7.6-40.1-33-43.7-49.7l3.7-0.8c1.7,7.8,7.3,17.8,14.9,26.8c8.3,9.7,17.7,16.9,26.4,20.2
	L52.1,154.8z"/>
<path class="st3" d="M157.5,106.9l-3.5-1.5c0.5-1.2,0.6-1.7,1-2.9c5.7-20.7,2.3-42.6-9.3-60.1l3.2-2.1c12.2,18.4,15.8,41.5,9.8,63.2
	C158.3,104.8,158.1,105.5,157.5,106.9z"/>
<path class="st1" d="M114.6,121.1c-8.5,6.8-19.1,11.1-30.9,10.9c-5.4-0.1-10.7-0.8-15.5-2.5l-1.2,3.4c5.3,1.8,11,2.6,16.9,2.7
	c12.6,0.2,24-4.2,33.2-11.2L114.6,121.1z"/>
<path class="st3" d="M68.6,129.7c-10.5-3.1-19.4-10.2-26-19.9c-3-4.5-4.7-9.4-6.1-14.4L32,96.5c1.6,5.4,4.1,11,7.4,15.9
	c7.1,10.4,17,17.1,28.1,20.7L68.6,129.7z"/>
<g>
	<path d="M50.3,185.2c-1.6,2.1-4.2,3.2-6.8,3.2c-4.6,0-8.6-3.9-8.5-8.9c0-4.1,3.1-7.8,7.2-8.6c0.4-0.1,0.9-0.1,1.4-0.1
		c2.3,0,4.8,0.8,6.3,2.5c0.8,0.9-0.6,2.2-1.4,1.3c-1.5-1.7-4-2.4-6-1.9c-3,0.7-5.5,3.3-5.5,6.8c0.1,3.8,3.1,7,6.6,7
		c2,0,4.1-0.8,5.2-2.4v-3.6h-4.8c-1.3,0-1.1-1.8,0-1.8h5.7c0.8,0,1,0.4,1,1v4.5C50.6,184.6,50.5,185,50.3,185.2z"/>
	<path d="M67.1,171.8c0-1.1,2-1.2,2,0v15.4c0,1.3-1.9,1.5-2.4,0.5l-10-13.5l0.2,3.7v9.5c0,1.3-2,1.3-2,0v-15.4
		c0-1.3,1.5-1.6,2.2-0.6l10.3,13.8l-0.3-4.1V171.8z"/>
	<path d="M72.5,179.4c0-4.2,2.8-7.8,7.1-8.5c1-0.1,1.9-0.1,2.8,0c4.1,0.6,7.3,4.1,7.3,8.5c0,5.6-4,9.1-8.6,9.1
		C76.4,188.5,72.5,185.1,72.5,179.4z M74.5,179.5c0,4.4,2.9,7.2,6.7,7.2c3.6,0,6.6-2.7,6.6-7.2c0-3.5-2.3-6.2-5.6-6.8
		c-0.8-0.1-1.6-0.1-2.3,0C76.6,173.2,74.5,175.8,74.5,179.5z"/>
	<path d="M94.1,184c0.7,2.2,3.7,2.7,5.8,2.7c2.3,0,5.8-0.7,5.8-3.4c0-2.3-2.8-2.5-5.8-2.8c-3.7-0.3-7.7-0.6-7.7-4.6
		c0-3.5,4.1-5.1,7.4-5.1c2.8,0,6.3,0.7,7.5,3.7c0.4,1.1-1.4,1.6-1.8,0.6c-0.8-2-3.7-2.4-5.6-2.4c-1.8,0-5.3,0.7-5.3,3.2
		c0,2.3,2.7,2.6,5.8,2.8c3.7,0.3,7.6,0.5,7.6,4.5c0,4.1-4.6,5.4-7.9,5.4c-2.7,0-6.9-0.9-7.8-4.2C91.8,183.3,93.9,182.9,94.1,184z"/>
	<path d="M110.7,171.5c0-1.3,2-1.3,2,0v16.1c0,1.2-2,1.3-2,0V171.5z"/>
	<path d="M117.4,184c0.7,2.2,3.7,2.7,5.8,2.7c2.3,0,5.8-0.7,5.8-3.4c0-2.3-2.8-2.5-5.8-2.8c-3.7-0.3-7.7-0.6-7.7-4.6
		c0-3.5,4.1-5.1,7.4-5.1c2.8,0,6.3,0.7,7.5,3.7c0.4,1.1-1.4,1.6-1.8,0.6c-0.8-2-3.7-2.4-5.6-2.4c-1.8,0-5.3,0.7-5.3,3.2
		c0,2.3,2.7,2.6,5.8,2.8c3.7,0.3,7.6,0.5,7.6,4.5c0,4.1-4.6,5.4-7.9,5.4c-2.7,0-6.9-0.9-7.8-4.2C115.1,183.3,117.1,182.9,117.4,184z
		"/>
</g>
</svg>
