<?xml version="1.0" encoding="utf-8"?>
<!-- Generator: Adobe Illustrator 19.2.1, SVG Export Plug-In . SVG Version: 6.00 Build 0)  -->
<svg version="1.1" id="Capa_1" xmlns="http://www.w3.org/2000/svg" xmlns:xlink="http://www.w3.org/1999/xlink" x="0px" y="0px"
	 viewBox="0 0 90.5 27.4" style="enable-background:new 0 0 90.5 27.4;" xml:space="preserve">
<style type="text/css">
	.st0{fill:#F6F6F6;}
	.st1{fill:#4D868E;}
	.st2{fill:#FFFFFF;}
</style>
<path class="st0" d="M12.2,26.4c-0.2,0-0.3,0-0.5-0.1L1.5,20.4c-0.3-0.2-0.5-0.5-0.5-0.8V7.7c0-0.3,0.2-0.7,0.5-0.8L11.7,1
	c0.3-0.2,0.7-0.2,0.9,0l10.2,5.9c0.3,0.2,0.5,0.5,0.5,0.8v11.9c0,0.3-0.2,0.7-0.5,0.8l-10.2,5.9C12.5,26.3,12.4,26.4,12.2,26.4z
	 M21.5,9.4l-2.3,1.4c-0.2,0.1-0.3,0.1-0.5,0.1c-0.3,0-0.6-0.2-0.8-0.5c-0.3-0.5-0.1-1,0.3-1.3l2.4-1.4l-7.4-4.2l0,6.6
	c0,0.5-0.4,1-1,1s-1-0.4-1-1V3.5h0L3.9,7.7L9.8,11c0.5,0.3,0.6,0.8,0.4,1.3c-0.2,0.3-0.5,0.5-0.8,0.5c-0.2,0-0.3,0-0.5-0.1L3,9.4
	v8.5l6-3.5c0.5-0.3,1-0.1,1.3,0.3c0.3,0.5,0.1,1-0.3,1.3l-6,3.6l7.3,4.2h0v-7c0-0.5,0.4-1,1-1c0.5,0,1,0.4,1,1v7h0l7.3-4.2l0,0
	l-5.9-3.3C14.2,16,14,15.4,14.3,15c0.3-0.5,0.8-0.6,1.3-0.4l5.9,3.3L21.5,9.4L21.5,9.4z"/>
<path class="st1" d="M15,13.1c-0.3,0-0.6-0.2-0.8-0.5c-0.3-0.5-0.1-1,0.3-1.3l1.5-0.9c0.5-0.3,1-0.1,1.3,0.3c0.3,0.5,0.1,1-0.3,1.3
	l-1.5,0.9C15.3,13,15.2,13.1,15,13.1z"/>
<g>
	<g>
		<path class="st2" d="M35.8,10.6c0-1.4-0.4-2.1-2.5-2.1s-2.5,0.8-2.5,2.8v4.4c0,2,0.2,2.8,2.5,2.8s2.5-0.5,2.5-2.5v-1.7h-2.4v-1.4
			h4v3.1c0,2.4-0.3,3.9-4.1,3.9c-3.4,0-4.1-1.5-4.1-4.2v-4.3c0-2.7,0.6-4.2,4.1-4.2c3.3,0,3.9,1,4,3.5H35.8z"/>
		<path class="st2" d="M45.6,7.2v1.4h-4.8v3.8h4.3v1.4h-4.3v4.5H46v1.4h-6.7V7.2H45.6z"/>
		<path class="st2" d="M53.1,10.3c-0.1-1-0.4-1.8-2-1.8c-1.7,0-2.1,0.8-2.1,2c0,1.7,1.5,1.7,3.1,1.9c1.4,0.1,2.9,0.9,2.9,3.5
			c0,2.7-1,3.8-3.6,3.8h-0.3c-2.6,0-3.7-1.2-3.8-3.4h1.7c0.1,1.1,0.6,1.9,2.2,1.9h0.3c1.7,0,2-0.8,2-2.3c0-2-1.3-2.1-2.9-2.2
			c-1.5-0.1-3.1-0.8-3.1-3.2c0-2.3,1.1-3.5,3.7-3.5c2.5,0,3.5,1.2,3.6,3.2H53.1z"/>
		<path class="st2" d="M60,8.7v11h-1.5v-11h-2.6V7.3h6.7v1.4H60z"/>
		<path class="st2" d="M70.2,7.2v1.4h-4.8v3.8h4.3v1.4h-4.3v4.5h5.2v1.4h-6.7V7.2H70.2z"/>
		<path class="st2" d="M72.3,19.7V7.2h1.6v11.1h4.9v1.4H72.3z"/>
		<path class="st2" d="M80.3,19.7V7.2h1.6v11.1h4.9v1.4H80.3z"/>
	</g>
</g>
</svg>
