<?xml version="1.0" encoding="utf-8"?>
<!-- Generator: Adobe Illustrator 19.2.1, SVG Export Plug-In . SVG Version: 6.00 Build 0)  -->
<svg version="1.1" id="Capa_1" xmlns="http://www.w3.org/2000/svg" xmlns:xlink="http://www.w3.org/1999/xlink" x="0px" y="0px"
	 viewBox="0 0 58.3 62.6" style="enable-background:new 0 0 58.3 62.6;" xml:space="preserve">
<style type="text/css">
	.st0{fill:#02242A;}
	.st1{fill:#4D868E;}
</style>
<g>
	<path class="st0" d="M29.5,61.6c-0.4,0-0.8-0.1-1.1-0.3L4.9,47.8c-0.7-0.4-1.1-1.1-1.1-1.9V18.5c0-0.8,0.4-1.5,1.1-1.9L28.5,3.1
		c0.7-0.4,1.5-0.4,2.2,0l23.5,13.5c0.7,0.4,1.1,1.1,1.1,1.9v27.3c0,0.8-0.4,1.5-1.1,1.9L30.6,61.3C30.3,61.5,29.9,61.6,29.5,61.6z
		 M50.9,22.5l-5.3,3.2c-0.4,0.2-0.7,0.3-1.1,0.3c-0.7,0-1.5-0.4-1.9-1.1c-0.6-1-0.3-2.4,0.8-3l5.5-3.3l-17-9.7l0,15.1
		c0,1.2-1,2.2-2.2,2.2s-2.2-1-2.2-2.2V8.8h0l-16.9,9.7l13.5,7.6c1.1,0.6,1.4,1.9,0.8,3c-0.4,0.7-1.2,1.1-1.9,1.1
		c-0.4,0-0.7-0.1-1.1-0.3L8.2,22.4v19.7L22,33.9c1-0.6,2.4-0.3,3,0.8c0.6,1,0.3,2.4-0.8,3l-13.8,8.2l16.9,9.7h0V39.4
		c0-1.2,1-2.2,2.2-2.2s2.2,1,2.2,2.2v16.2h0l16.9-9.7l0,0l-13.5-7.5c-1.1-0.6-1.4-1.9-0.8-3c0.6-1.1,1.9-1.4,3-0.8L50.9,42
		L50.9,22.5L50.9,22.5z"/>
	<path class="st1" d="M36,30.9c-0.8,0-1.5-0.4-1.9-1.1c-0.6-1-0.3-2.4,0.8-3l3.4-2c1-0.6,2.4-0.3,3,0.8c0.6,1,0.3,2.4-0.8,3l-3.4,2
		C36.7,30.8,36.3,30.9,36,30.9z"/>
</g>
</svg>
