<?xml version="1.0" encoding="utf-8"?>
<!-- Generator: Adobe Illustrator 19.2.1, SVG Export Plug-In . SVG Version: 6.00 Build 0)  -->
<svg version="1.1" id="Layer_1" xmlns="http://www.w3.org/2000/svg" xmlns:xlink="http://www.w3.org/1999/xlink" x="0px" y="0px"
	 viewBox="0 0 48 48" style="enable-background:new 0 0 48 48;" xml:space="preserve">
<style type="text/css">
	.st0{fill:#FFFFFF;}
</style>
<path class="st0" d="M39,39h-3v-2h3c3.9,0,7-3.1,7-7s-3.1-7-7-7c-0.6,0-1-0.4-1-1v-1c0-7.7-5.8-14-13-14c-5.8,0-12,3.6-12,9
	c0,0.6-0.4,1-1,1C6.5,17,2,21.5,2,27s4.5,10,10,10v2C5.4,39,0,33.6,0,27c0-6.3,4.9-11.5,11.1-12C11.7,8.8,18.6,5,25,5
	c8.3,0,15,7.2,15,16v0.1c4.5,0.5,8,4.3,8,8.9C48,35,44,39,39,39z M31,41H17c-0.6,0-1-0.4-1-1V21c0-0.6,0.4-1,1-1h14c0.6,0,1,0.4,1,1
	v19C32,40.6,31.6,41,31,41z M18,39h12V22H18V39z M20,43h-2c-0.6,0-1-0.4-1-1s0.4-1,1-1h2c0.6,0,1,0.4,1,1S20.6,43,20,43z M30,43h-2
	c-0.6,0-1-0.4-1-1s0.4-1,1-1h2c0.6,0,1,0.4,1,1S30.6,43,30,43z M30,28H18c-0.6,0-1-0.4-1-1s0.4-1,1-1h12c0.6,0,1,0.4,1,1
	S30.6,28,30,28z M30,35H18c-0.6,0-1-0.4-1-1s0.4-1,1-1h12c0.6,0,1,0.4,1,1S30.6,35,30,35z M28,25c-0.3,0-0.5-0.1-0.7-0.3
	C27.1,24.5,27,24.3,27,24c0-0.3,0.1-0.5,0.3-0.7c0.4-0.4,1-0.4,1.4,0c0.2,0.2,0.3,0.4,0.3,0.7c0,0.3-0.1,0.5-0.3,0.7
	C28.5,24.9,28.3,25,28,25z M28,32c-0.3,0-0.5-0.1-0.7-0.3C27.1,31.5,27,31.3,27,31s0.1-0.5,0.3-0.7c0.4-0.4,1-0.4,1.4,0
	c0.2,0.2,0.3,0.4,0.3,0.7s-0.1,0.5-0.3,0.7C28.5,31.9,28.3,32,28,32z M28,38c-0.3,0-0.5-0.1-0.7-0.3C27.1,37.5,27,37.3,27,37
	s0.1-0.5,0.3-0.7c0.4-0.4,1-0.4,1.4,0c0.2,0.2,0.3,0.5,0.3,0.7s-0.1,0.5-0.3,0.7C28.5,37.9,28.3,38,28,38z"/>
</svg>
