<?xml version="1.0" ?><!DOCTYPE svg  PUBLIC '-//W3C//DTD SVG 1.1//EN'  'http://www.w3.org/Graphics/SVG/1.1/DTD/svg11.dtd'><svg height="48px" id="Layer_1" style="enable-background:new 0 0 48 48;" version="1.1" viewBox="0 0 48 48" width="48px" xml:space="preserve" xmlns="http://www.w3.org/2000/svg" xmlns:xlink="http://www.w3.org/1999/xlink"><path d="M39,39h-3v-2h3c3.859,0,7-3.141,7-7s-3.141-7-7-7c-0.553,0-1-0.447-1-1v-1c0-7.721-5.832-14-13-14c-5.795,0-12,3.616-12,9  c0,0.553-0.448,1-1,1C6.486,17,2,21.486,2,27c0,5.514,4.486,10,10,10v2C5.383,39,0,33.617,0,27c0-6.297,4.875-11.477,11.05-11.963  C11.698,8.811,18.591,5,25,5c8.271,0,15,7.178,15,16v0.057c4.494,0.498,8,4.318,8,8.943C48,34.963,43.963,39,39,39z M31,41H17  c-0.552,0-1-0.447-1-1V21c0-0.553,0.448-1,1-1h14c0.553,0,1,0.447,1,1v19C32,40.553,31.553,41,31,41z M18,39h12V22H18V39z M20,43h-2  c-0.552,0-1-0.447-1-1s0.448-1,1-1h2c0.552,0,1,0.447,1,1S20.552,43,20,43z M30,43h-2c-0.553,0-1-0.447-1-1s0.447-1,1-1h2  c0.553,0,1,0.447,1,1S30.553,43,30,43z M30,28H18c-0.552,0-1-0.447-1-1s0.448-1,1-1h12c0.553,0,1,0.447,1,1S30.553,28,30,28z M30,35  H18c-0.552,0-1-0.447-1-1s0.448-1,1-1h12c0.553,0,1,0.447,1,1S30.553,35,30,35z M28,25c-0.26,0-0.52-0.109-0.71-0.29  C27.109,24.52,27,24.27,27,24c0-0.26,0.109-0.521,0.29-0.71c0.37-0.37,1.04-0.37,1.42,0C28.891,23.479,29,23.74,29,24  c0,0.27-0.109,0.52-0.301,0.71C28.52,24.891,28.27,25,28,25z M28,32c-0.26,0-0.52-0.109-0.71-0.29C27.109,31.52,27,31.26,27,31  s0.109-0.521,0.29-0.71c0.37-0.37,1.05-0.37,1.42,0C28.891,30.479,29,30.74,29,31s-0.109,0.52-0.29,0.71  C28.52,31.891,28.26,32,28,32z M28,38c-0.26,0-0.52-0.109-0.71-0.29C27.1,37.51,27,37.26,27,37s0.109-0.521,0.29-0.71  c0.36-0.37,1.05-0.37,1.42,0C28.891,36.479,29,36.74,29,37s-0.1,0.52-0.29,0.71C28.52,37.891,28.26,38,28,38z"/></svg>