<?xml version="1.0" encoding="utf-8"?>
<!-- Generator: Adobe Illustrator 19.2.1, SVG Export Plug-In . SVG Version: 6.00 Build 0)  -->
<svg version="1.1" id="Capa_1" xmlns:ev="http://www.w3.org/2001/xml-events"
	 xmlns="http://www.w3.org/2000/svg" xmlns:xlink="http://www.w3.org/1999/xlink" x="0px" y="0px" viewBox="0 0 57 57"
	 style="enable-background:new 0 0 57 57;" xml:space="preserve">
<style type="text/css">
	.st0{fill:#FFFFFF;}
</style>
<path class="st0" d="M51,56H5c-2.8,0-5-2.2-5-5V5c0-2.8,2.2-5,5-5h46c2.8,0,5,2.2,5,5v46C56,53.8,53.8,56,51,56z M54,5
	c0-1.7-1.3-3-3-3H5C3.3,2,2,3.3,2,5v46c0,1.7,1.3,3,3,3h46c1.7,0,3-1.3,3-3V5z M44,35.9V47c0,0.6-0.4,1-1,1c-0.6,0-1-0.4-1-1V35.9
	c-2.3-0.5-4-2.5-4-4.9c0-2.4,1.7-4.4,4-4.9V9c0-0.6,0.4-1,1-1c0.6,0,1,0.4,1,1v17.1c2.3,0.5,4,2.5,4,4.9C48,33.4,46.3,35.4,44,35.9z
	 M43,28c-1.7,0-3,1.3-3,3c0,1.7,1.3,3,3,3c1.7,0,3-1.3,3-3C46,29.3,44.7,28,43,28z M34,21.9V47c0,0.6-0.4,1-1,1c-0.6,0-1-0.4-1-1
	V21.9c-2.3-0.5-4-2.5-4-4.9c0-2.4,1.7-4.4,4-4.9V9c0-0.6,0.4-1,1-1c0.6,0,1,0.4,1,1v3.1c2.3,0.5,4,2.5,4,4.9
	C38,19.4,36.3,21.4,34,21.9z M33,14c-1.7,0-3,1.3-3,3c0,1.7,1.3,3,3,3c1.7,0,3-1.3,3-3C36,15.3,34.7,14,33,14z M24,43.9V47
	c0,0.6-0.4,1-1,1s-1-0.4-1-1v-3.1c-2.3-0.5-4-2.5-4-4.9c0-2.4,1.7-4.4,4-4.9V9c0-0.6,0.4-1,1-1s1,0.4,1,1v25.1c2.3,0.5,4,2.5,4,4.9
	C28,41.4,26.3,43.4,24,43.9z M23,36c-1.7,0-3,1.3-3,3c0,1.7,1.3,3,3,3c1.7,0,3-1.3,3-3C26,37.3,24.7,36,23,36z M14,27.9V47
	c0,0.6-0.4,1-1,1s-1-0.4-1-1V27.9c-2.3-0.5-4-2.5-4-4.9c0-2.4,1.7-4.4,4-4.9V9c0-0.6,0.4-1,1-1s1,0.4,1,1v9.1c2.3,0.5,4,2.5,4,4.9
	C18,25.4,16.3,27.4,14,27.9z M13,20c-1.7,0-3,1.3-3,3c0,1.7,1.3,3,3,3c1.7,0,3-1.3,3-3C16,21.3,14.7,20,13,20z"/>
</svg>
