<?xml version="1.0" encoding="utf-8"?>
<!-- Generator: Adobe Illustrator 19.2.1, SVG Export Plug-In . SVG Version: 6.00 Build 0)  -->
<svg version="1.1" id="Capa_1" xmlns:ev="http://www.w3.org/2001/xml-events"
	 xmlns="http://www.w3.org/2000/svg" xmlns:xlink="http://www.w3.org/1999/xlink" x="0px" y="0px" viewBox="0 0 53 37"
	 style="enable-background:new 0 0 53 37;" xml:space="preserve">
<style type="text/css">
	.st0{fill:#FFFFFF;}
</style>
<path class="st0" d="M51.2,35.1C51.1,35.1,51.1,35.1,51.2,35.1C51.1,35.1,51.1,35.1,51.2,35.1C50.6,35.7,49.8,36,49,36H3
	c-0.8,0-1.6-0.3-2.1-0.9c0,0,0,0,0,0c0,0,0,0,0,0C0.3,34.5,0,33.8,0,33V3c0-0.8,0.3-1.5,0.9-2.1c0,0,0,0,0,0c0,0,0,0,0,0
	C1.4,0.3,2.2,0,3,0h46c0.8,0,1.6,0.3,2.1,0.9c0,0,0,0,0,0c0,0,0,0,0,0C51.7,1.5,52,2.2,52,3v30C52,33.8,51.7,34.5,51.2,35.1z
	 M18.7,19.4L3.5,34h45.1L33.3,19.4l-2.4,2.3c-1.4,1.3-3.1,2-4.8,2s-3.5-0.7-4.8-2L18.7,19.4z M2,3.4v29.3L17.3,18L2,3.4z M3.5,2
	l19.1,18.3c1.9,1.9,5,1.9,6.9,0L48.5,2H3.5z M50,3.4L34.7,18L50,32.6V3.4z"/>
</svg>
