<?xml version="1.0" encoding="utf-8"?>
<!-- Generator: Adobe Illustrator 19.2.1, SVG Export Plug-In . SVG Version: 6.00 Build 0)  -->
<svg version="1.1" id="Layer_1" xmlns="http://www.w3.org/2000/svg" xmlns:xlink="http://www.w3.org/1999/xlink" x="0px" y="0px"
	 viewBox="0 0 512 512" style="enable-background:new 0 0 512 512;" xml:space="preserve">
<style type="text/css">
	.st0{fill:#FFFFFF;}
</style>
<g id="XMLID_3_">
	<path id="XMLID_8_" class="st0" d="M276.9,32.7c-28.5,0-56,6.2-81.6,18.3C128.2,82.2,84.8,150.1,84.8,224.1v28L48.7,321
		c-5.9,11.4-6.3,22.9-1,31.7c5.3,8.8,15.7,13.9,28.6,13.9h8.5V425c0,26,21.2,47.2,47.2,47.2c0.4,0,0.9,0,1.3-0.1l52.6-7.8h0.1h0.1
		l107-18.8c25.4-3.4,43.3-26.6,40.5-52l0.3-99.8c0-4.9-4-8.9-8.9-9l0,0c-4.9,0-8.9,4-8.9,8.9l-0.3,100c0,0.2,0,0.4,0.1,0.6
		c0,0.2,0,0.4,0,0.6c2.1,16-9.2,30.8-25.3,32.9c-0.1,0-0.3,0-0.4,0.1l-107.1,18.8l-51.7,7.7c-15.9-0.3-28.7-13.4-28.7-29.3v-67.4
		c0-4.9-4-8.9-8.9-8.9H76.3c-6.4,0-11.3-1.9-13.3-5.2c-2-3.3-1.5-8.5,1.5-14.2l37.1-70.9c0.7-1.3,1-2.7,1-4.1v-30.2
		c0-67,39.3-128.6,100.2-156.9c23.2-11,48.1-16.6,74-16.6c95.5,0,173.2,77.7,173.2,173.2c0,48.4-20.5,94.9-56.2,127.7
		c-1.8,1.7-2.9,4.1-2.9,6.6v58.2v54.1c0,4.9,4,8.9,8.9,8.9s8.9-4,8.9-8.9v-54.1V362c37.6-36,59.1-86.1,59.1-138.1
		C468,118.5,382.3,32.7,276.9,32.7z"/>
	<g id="XMLID_1177_">
		<path id="XMLID_5_" class="st0" d="M325.1,302.6c-41.6,0-75.4-33.8-75.4-75.4s33.8-75.4,75.4-75.4s75.4,33.8,75.4,75.4
			S366.7,302.6,325.1,302.6z M325.1,169.7c-31.7,0-57.5,25.8-57.5,57.5s25.8,57.5,57.5,57.5s57.5-25.8,57.5-57.5
			S356.8,169.7,325.1,169.7z"/>
	</g>
</g>
</svg>
