<?xml version="1.0" encoding="utf-8"?>
<!-- Generator: Adobe Illustrator 19.2.1, SVG Export Plug-In . SVG Version: 6.00 Build 0)  -->
<svg version="1.1" id="Capa_3" xmlns="http://www.w3.org/2000/svg" xmlns:xlink="http://www.w3.org/1999/xlink" x="0px" y="0px"
	 viewBox="0 0 165.9 195.2" style="enable-background:new 0 0 165.9 195.2;" xml:space="preserve">
<style type="text/css">
	.st0{fill:#02242A;}
</style>
<g>
	<path class="st0" d="M32.2,167.6c4.2,0,6.7,1.7,6.7,6.5v2.6c0,4.9-1.9,6.9-6.7,6.9h-3.5v7.9h-2.9v-23.8L32.2,167.6z M28.8,170.4
		v10.4h3.5c2.6,0,3.8-0.8,3.8-4.1v-2.6c0-3.3-1.2-3.5-3.8-3.7H28.8z"/>
	<path class="st0" d="M42.4,191.4v-23.8h3v21h9.3v2.7H42.4z"/>
	<path class="st0" d="M69.6,167.6v2.6h-9.1v7.1h8.2v2.7h-8.2v8.6h9.8v2.7H57.6v-23.8H69.6z"/>
	<path class="st0" d="M82.3,182.4l5.1,9H84l-4.8-8.8h-2.7v8.8h-2.9v-23.8l6.4,0c4.2,0,6.7,1.7,6.7,6.5v1.7
		C86.7,179.5,85.6,181.8,82.3,182.4z M76.5,170.4v9.4H80c2.6,0,3.8-0.8,3.8-4.1v-1.7c0-3.3-1.2-3.5-3.8-3.7H76.5z"/>
	<path class="st0" d="M105.3,183.6c0,5.2-1.2,8-7.7,8c-6.5,0-7.7-2.8-7.7-8v-8.3c0-5.2,1.2-8,7.7-8c6.5,0,7.7,2.8,7.7,8V183.6z
		 M102.4,175.3c0-3.8-0.3-5.3-4.7-5.3c-4.4,0-4.7,1.5-4.7,5.3v8.4c0,3.8,0.3,5.2,4.7,5.2c4.4,0,4.7-1.5,4.7-5.2V175.3z"/>
	<path class="st0" d="M116.9,180.7l4.2-13.1h3.4v23.8h-2.9v-11.2l0.4-6.5l-4.3,13.3h-1.4l-4.3-13.3l0.4,6.5v11.2h-2.9v-23.8h3.4
		L116.9,180.7z"/>
	<path class="st0" d="M139.5,191.4l-1.2-4.4h-7.1l-1.2,4.4h-3.1l6.3-23.7h3l6.3,23.7H139.5z M134.7,171.5l-1.6,7.7l-1.2,5h5.6
		l-1.2-5.1L134.7,171.5z"/>
</g>
<g>
	<path class="st0" d="M82.7,163.1c-44.3,0-80.4-35.9-80.4-80c0-44.1,36.1-80,80.4-80C127,3,163,38.9,163,83
		C163,127.2,127,163.1,82.7,163.1z M82.7,5.7C39.8,5.7,5,40.4,5,83c0,42.6,34.9,77.3,77.7,77.3c42.9,0,77.7-34.7,77.7-77.3
		C160.4,40.4,125.5,5.7,82.7,5.7z"/>
	<path class="st0" d="M94.9,93C94.9,93,94.9,93,94.9,93C94.9,92.9,94.9,92.9,94.9,93l-0.3-31.1c0.1-3.2-0.7-3.3-1.8-3.4
		c-1-0.1-2,0.4-2.7,1.2l-1.5,1.7L88,61.8L75.2,75.3c0,0-0.5,0.3-0.5-1.2c0-6.3,0-26.7,0-26.7c0-1.9-0.9-2-2.2-2
		c-0.7,0-1.5,0-1.8,0.6c-0.4,0.6-0.4,0.5-0.4,1.4l0,33c0,0.1-0.1,0.3-0.1,0.5l0.1,33.1c0,1.3,0.7,1.8,1.5,1.9c1,0.1,2-0.1,2.8-1
		L90,100c0,3,0,7.1,0,11.2c0,5.4,0,12.4,0,15.2c0,1.1,0.4,1.7,0.8,2.1c0.5,0.5,1.5,0.3,2.2,0.3c1.3,0,2.2-0.6,2.2-2.4L94.9,93z
		 M88.3,92.8L75,106.5c0,0-0.4-0.2-0.4-1.7c0-5.1,0-17.2,0.1-21.9l15-14.7c0,3,0.1,5.4,0.1,9.5c0,4.6,0,10.2,0,13.5l-1.1,1.1
		L88.3,92.8z"/>
</g>
</svg>
