<?xml version="1.0" encoding="utf-8"?>
<!-- Generator: Adobe Illustrator 19.2.1, SVG Export Plug-In . SVG Version: 6.00 Build 0)  -->
<svg version="1.1" id="Capa_1" xmlns="http://www.w3.org/2000/svg" xmlns:xlink="http://www.w3.org/1999/xlink" x="0px" y="0px"
	 viewBox="0 0 325 90.7" style="enable-background:new 0 0 325 90.7;" xml:space="preserve">
<style type="text/css">
	.st0{fill:#F2F2F2;}
</style>
<g>
	<path class="st0" d="M47,87.1c-23,0-41.7-18.6-41.7-41.5S24,4.1,47,4.1c23-0.1,41.7,18.6,41.7,41.4C88.7,68.5,70,87.1,47,87.1z
		 M47,5.5c-22.3,0-40.3,18-40.3,40.1S24.8,85.6,47,85.6c22.3,0,40.3-18,40.3-40.1S69.2,5.5,47,5.5z"/>
	<path class="st0" d="M53.3,50.7L53.3,50.7C53.3,50.7,53.3,50.7,53.3,50.7l-0.2-16.1c0.1-1.7-0.4-1.7-0.9-1.8
		c-0.5-0.1-1,0.2-1.4,0.6l-0.8,0.9l-0.3,0.2l-6.6,7c0,0-0.3,0.2-0.3-0.6c0-3.3,0-13.8,0-13.8c0-1-0.5-1-1.1-1c-0.4,0-0.8,0-0.9,0.3
		c-0.2,0.3-0.2,0.3-0.2,0.7v17.1c0,0.1-0.1,0.2-0.1,0.3l0.1,17.2c0,0.7,0.4,0.9,0.8,1c0.5,0.1,1-0.1,1.5-0.5l8-7.7
		c0,1.6,0,3.7,0,5.8c0,2.8,0,6.4,0,7.9c0,0.6,0.2,0.9,0.4,1.1c0.3,0.3,0.8,0.2,1.1,0.2c0.7,0,1.1-0.3,1.1-1.2L53.3,50.7z M49.9,50.6
		L43,57.7c0,0-0.2-0.1-0.2-0.9c0-2.6,0-8.9,0.1-11.4l7.8-7.6c0,1.6,0.1,2.8,0.1,4.9c0,2.4,0,5.3,0,7l-0.6,0.6L49.9,50.6z"/>
</g>
<g>
	<path class="st0" d="M114.4,23.3c7.8,0,12.5,3.2,12.5,12.1v4.8c0,9.1-3.5,12.8-12.5,12.8h-6.5v14.7h-5.4V23.5L114.4,23.3z
		 M108,28.5v19.4h6.5c4.8,0,7.1-1.5,7.1-7.6v-4.8c0-6.1-2.2-6.5-7.1-6.9L108,28.5L108,28.5z"/>
	<path class="st0" d="M133.3,67.6V23.3h5.6v39.1h17.3v5h-22.9V67.6z"/>
	<path class="st0" d="M184,23.3v4.8H167v13.2h15.3v5H167v16h18.2v5h-23.6V23.1H184V23.3z"/>
	<path class="st0" d="M207.6,50.9l9.5,16.8h-6.3l-8.9-16.4h-5v16.4h-5.4V23.3h11.9c7.8,0,12.5,3.2,12.5,12.1v3.2
		C215.8,45.5,213.8,49.7,207.6,50.9z M196.8,28.5V46h6.5c4.8,0,7.1-1.5,7.1-7.6v-3.2c0-6.1-2.2-6.5-7.1-6.9h-6.5V28.5z"/>
	<path class="st0" d="M250.4,53.1c0,9.7-2.2,14.9-14.3,14.9c-12.1,0-14.3-5.2-14.3-14.9V37.6c0-9.7,2.2-14.9,14.3-14.9
		c12.1,0,14.3,5.2,14.3,14.9V53.1z M245,37.6c0-7.1-0.6-9.9-8.7-9.9s-8.7,2.8-8.7,9.9v15.6c0,7.1,0.6,9.7,8.7,9.7
		c8.2,0,8.7-2.8,8.7-9.7V37.6z"/>
	<path class="st0" d="M272,47.7l7.8-24.4h6.3v44.3h-5.4V46.8l0.7-12.1l-8,24.8h-2.6l-8-24.8l0.7,12.1v20.8h-5.4V23.3h6.3L272,47.7z"
		/>
	<path class="st0" d="M314.1,67.6l-2.2-8.2h-13.2l-2.2,8.2h-5.8l11.7-44.1h5.6l11.7,44.1H314.1z M305.2,30.6l-3,14.3l-2.2,9.3h10.4
		l-2.2-9.5L305.2,30.6z"/>
</g>
</svg>
