<?xml version="1.0" encoding="utf-8"?>
<!-- Generator: Adobe Illustrator 19.2.1, SVG Export Plug-In . SVG Version: 6.00 Build 0)  -->
<svg version="1.1" id="Capa_3" xmlns="http://www.w3.org/2000/svg" xmlns:xlink="http://www.w3.org/1999/xlink" x="0px" y="0px"
	 viewBox="0 0 165.9 167.3" style="enable-background:new 0 0 165.9 167.3;" xml:space="preserve">
<style type="text/css">
	.st0{fill:#FFFFFF;}
</style>
<g>
	<path class="st0" d="M82.7,163.1c-44.3,0-80.4-35.9-80.4-80s36.1-80,80.4-80C127,3,163,38.9,163,83C163,127.2,127,163.1,82.7,163.1
		z M82.7,5.7C39.8,5.7,5,40.4,5,83s34.9,77.3,77.7,77.3c42.9,0,77.7-34.7,77.7-77.3S125.5,5.7,82.7,5.7z"/>
	<path class="st0" d="M94.9,93L94.9,93C94.9,92.9,94.9,92.9,94.9,93l-0.3-31.1c0.1-3.2-0.7-3.3-1.8-3.4c-1-0.1-2,0.4-2.7,1.2
		l-1.5,1.7L88,61.8L75.2,75.3c0,0-0.5,0.3-0.5-1.2c0-6.3,0-26.7,0-26.7c0-1.9-0.9-2-2.2-2c-0.7,0-1.5,0-1.8,0.6
		c-0.4,0.6-0.4,0.5-0.4,1.4v33c0,0.1-0.1,0.3-0.1,0.5l0.1,33.1c0,1.3,0.7,1.8,1.5,1.9c1,0.1,2-0.1,2.8-1L90,100c0,3,0,7.1,0,11.2
		c0,5.4,0,12.4,0,15.2c0,1.1,0.4,1.7,0.8,2.1c0.5,0.5,1.5,0.3,2.2,0.3c1.3,0,2.2-0.6,2.2-2.4L94.9,93z M88.3,92.8L75,106.5
		c0,0-0.4-0.2-0.4-1.7c0-5.1,0-17.2,0.1-21.9l15-14.7c0,3,0.1,5.4,0.1,9.5c0,4.6,0,10.2,0,13.5l-1.1,1.1L88.3,92.8z"/>
</g>
</svg>
