<?xml version="1.0" encoding="utf-8"?>
<!-- Generator: Adobe Illustrator 19.2.1, SVG Export Plug-In . SVG Version: 6.00 Build 0)  -->
<svg version="1.1" xmlns="http://www.w3.org/2000/svg" xmlns:xlink="http://www.w3.org/1999/xlink" x="0px" y="0px"
	 viewBox="0 0 64 64" style="enable-background:new 0 0 64 64;" xml:space="preserve">
<style type="text/css">
	.st0{display:none;}
	.st1{display:inline;fill:#2D2D2D;}
	.st2{fill:none;stroke:#FFFFFF;stroke-width:2;stroke-linecap:round;stroke-linejoin:round;stroke-miterlimit:10;}
</style>
<g id="Capa_2" class="st0">
	<rect x="-10.8" y="-7.4" class="st1" width="86.6" height="79.8"/>
</g>
<g id="Layer_1">
	<g>
		<path class="st2" d="M32,61.5C15.7,61.5,2.5,48.3,2.5,32S15.7,2.5,32,2.5c13.6,0,25,9.2,28.5,21.7"/>
		<line class="st2" x1="8" y1="32" x2="50.9" y2="32"/>
		<path class="st2" d="M32,61.5c-1.1,0-2.2-0.5-3.3-1.5c-4.2-3.9-7.2-15-7.2-28c0-16.3,4.7-29.5,10.5-29.5S42.5,15.7,42.5,32"/>
		<path class="st2" d="M7.1,47.8c4.9-2.2,12.7-3.7,21.7-4c1,0,2.1,0,3.2,0"/>
		<path class="st2" d="M7.1,16.2c5.4,2.4,14.6,4,24.9,4c10.3,0,19.5-1.6,24.9-4"/>
	</g>
	<g>
		<line class="st2" x1="36.1" y1="61" x2="36.1" y2="50"/>
		<line class="st2" x1="40.3" y1="61" x2="40.3" y2="48"/>
		<line class="st2" x1="44.4" y1="61" x2="44.4" y2="45"/>
		<line class="st2" x1="48.6" y1="61" x2="48.6" y2="44"/>
		<line class="st2" x1="52.7" y1="61" x2="52.7" y2="44"/>
		<line class="st2" x1="56.9" y1="61" x2="56.9" y2="38"/>
		<line class="st2" x1="61" y1="61" x2="61" y2="37"/>
	</g>
	<polyline class="st2" points="59.5,29.5 48.5,40.5 41,40.5 35,46 	"/>
	<polyline class="st2" points="55,28 61,28 61,34 	"/>
</g>
</svg>
