<?xml version="1.0" encoding="utf-8"?>
<!-- Generator: Adobe Illustrator 19.2.1, SVG Export Plug-In . SVG Version: 6.00 Build 0)  -->
<svg version="1.1" id="Capa_2" xmlns="http://www.w3.org/2000/svg" xmlns:xlink="http://www.w3.org/1999/xlink" x="0px" y="0px"
	 viewBox="0 0 165.9 195.2" style="enable-background:new 0 0 165.9 195.2;" xml:space="preserve">
<style type="text/css">
	.st0{fill:#02242A;}
</style>
<path class="st0" d="M83.5,161.4C39.7,161.4,4,125.8,4,82.2C4,38.5,39.7,3,83.5,3C127.4,3,163,38.5,163,82.2
	C163,125.8,127.4,161.4,83.5,161.4z M83.5,5.7C41.1,5.7,6.6,40,6.6,82.2c0,42.2,34.5,76.5,76.9,76.5c42.4,0,76.9-34.3,76.9-76.5
	C160.4,40,125.9,5.7,83.5,5.7z"/>
<g>
	<path class="st0" d="M98,67.9c-1.3-0.5-2.8-0.1-3.9,1L92,71.2h0L72.5,91.7L72.5,54c0-2.7-0.6-2.7-2.3-2.7c-0.9,0-2.9,0-3.4,0.8
		c-0.5,0.8-0.5,0.7-0.5,1.9v46.3c0.1,1.2,0.8,1.7,2,2.1c1.3,0.5,2.4,0,3.4-1.2L95,75.6c0,4.1-0.2,13-0.2,18.7c0,7.5,0,15,0,18.8
		c0,1.5,0.2,3.9,0.7,4.4c0.6,0.7,1.1,0.7,2.1,0.7c1.7,0,3.1-0.8,3.1-3.3V72C100.5,70.1,99.5,68.5,98,67.9z"/>
	<path class="st0" d="M97.4,118.6c-1,0-1.6-0.1-2.4-0.9c-0.8-0.8-0.8-4.3-0.8-4.7c0-3.9,0-11.3,0-18.8c0-3,0.1-7.1,0.1-10.6
		c0-2.6,0.1-5,0.1-6.9l-22.4,24.5c-1.2,1.4-2.5,1.9-3.9,1.3c-1-0.4-2.2-0.9-2.3-2.5l0-46.5c0-1.1,0-1.1,0.5-1.9l0.1-0.1
		c0.6-0.9,2.2-1,3.6-1c0,0,0,0,0,0h0.1c2,0,2.8,0.3,2.8,3.2l-0.1,36.6l18.3-19.2l0.4-0.4l2.1-2.3c1.2-1.3,2.9-1.7,4.4-1.1l0,0
		c1.7,0.7,2.8,2.4,2.8,4.5v42.8C101,117.3,99.7,118.6,97.4,118.6z M95.4,74.4l0,1.2c0,1.9-0.1,4.9-0.1,8.1
		c-0.1,3.6-0.1,7.6-0.1,10.6c0,7.5,0,15,0,18.8c0,2,0.3,3.8,0.5,4c0.5,0.5,0.9,0.6,1.7,0.6c1.8,0,2.6-0.9,2.6-2.9V72
		c0-1.7-0.9-3.1-2.2-3.6l0,0c-1.2-0.5-2.5-0.1-3.4,0.9L93,70.8h0l-0.7,0.8L72,92.9L72.1,54c0-2.3-0.2-2.3-1.9-2.3h-0.1
		c-0.7,0-2.5,0-2.9,0.6l-0.1,0.1c-0.4,0.6-0.4,0.6-0.4,1.4v46.4c0,0.8,0.4,1.2,1.6,1.6c1.1,0.4,2,0.1,2.9-1.1L95.4,74.4z"/>
</g>
<g>
	<path class="st0" d="M50,170v21.9h-3.1V170h-5.2v-2.8h13.4v2.8H50z"/>
	<path class="st0" d="M70.2,167v2.7h-9.5v7.5h8.6v2.9h-8.6v9H71v2.9H57.7V167H70.2z"/>
	<path class="st0" d="M74.5,191.8V167h3.1v22h9.7v2.8H74.5z"/>
	<path class="st0" d="M105.2,183.7c0,5.4-1.2,8.4-8.1,8.4c-6.8,0-8.1-2.9-8.1-8.4V175c0-5.4,1.2-8.4,8.1-8.4c6.8,0,8.1,2.9,8.1,8.4
		V183.7z M102.2,175c0-3.9-0.3-5.5-5-5.5c-4.6,0-5,1.6-5,5.5v8.7c0,3.9,0.3,5.5,5,5.5c4.6,0,5-1.5,5-5.5V175z"/>
	<path class="st0" d="M120.2,173.1c-0.2-2-0.9-3.5-4-3.5c-3.4,0-4.1,1.6-4.1,4.1c0,3.4,3,3.4,6.1,3.7c2.9,0.3,5.8,1.7,5.8,6.9
		c0,5.3-2,7.6-7.2,7.6h-0.6c-5.1,0-7.4-2.5-7.6-6.7h3.3c0.2,2.1,1.1,3.7,4.3,3.7h0.6c3.4,0,4-1.6,4-4.5c0-4.1-2.7-4.1-5.8-4.4
		c-2.9-0.2-6.2-1.6-6.2-6.4c0-4.6,2.1-7,7.3-7c4.9,0,6.9,2.3,7.2,6.4H120.2z"/>
</g>
</svg>
