<?xml version="1.0" encoding="utf-8"?>
<!-- Generator: Adobe Illustrator 19.2.1, SVG Export Plug-In . SVG Version: 6.00 Build 0)  -->
<svg version="1.1" id="Capa_1" xmlns:ev="http://www.w3.org/2001/xml-events"
	 xmlns="http://www.w3.org/2000/svg" xmlns:xlink="http://www.w3.org/1999/xlink" x="0px" y="0px" viewBox="0 0 53 52"
	 style="enable-background:new 0 0 53 52;" xml:space="preserve">
<path d="M28.3,27.2L28.3,27.2c-0.9,0.9-2.4,0.9-3.3,0L14,13l14.3,11C29.2,24.9,29.2,26.3,28.3,27.2z M27,52C12.7,52,1,40.3,1,26
	c0-6.9,2.7-13.4,7.6-18.3c0.4-0.4,1-0.4,1.4,0c0.4,0.4,0.4,1,0,1.4C5.5,13.6,3,19.6,3,26c0,13.2,10.8,24,24,24s24-10.8,24-24
	C51,13.1,40.8,2.6,28,2l0.1,11.1c0,0.6-0.4,1-1,1l0,0c-0.5,0-1-0.4-1-1L26,1c0-0.3,0.1-0.5,0.3-0.7C26.5,0.1,26.7,0,27,0
	c14.3,0,26,11.7,26,26S41.3,52,27,52z"/>
</svg>
